<svg width="19" height="11" viewBox="0 0 19 11" fill="none" xmlns="http://www.w3.org/2000/svg">
<path d="M18.0599 5.5L13.6141 10.2971C13.5775 10.3357 13.5485 10.3816 13.5289 10.4321C13.5093 10.4826 13.4995 10.5367 13.4999 10.5912C13.5003 10.6457 13.511 10.6996 13.5314 10.7497C13.5518 10.7998 13.5815 10.8452 13.6187 10.8832C13.6559 10.9212 13.6999 10.9511 13.7482 10.9711C13.7965 10.9912 13.8481 11.001 13.9 10.9999C13.9519 10.9989 14.0031 10.9871 14.0506 10.9651C14.0982 10.9432 14.1411 10.9115 14.1769 10.8721L18.8887 5.78748C18.96 5.71052 18.9999 5.60738 18.9999 5.5C18.9999 5.39262 18.96 5.28948 18.8887 5.21252L14.1769 0.127947C14.1411 0.0884724 14.0982 0.0568457 14.0506 0.0348969C14.0031 0.0129471 13.9519 0.00111103 13.9 7.34329e-05C13.8481 -0.000964165 13.7965 0.00881672 13.7482 0.0288515C13.6999 0.0488853 13.6559 0.0787745 13.6187 0.116789C13.5815 0.154803 13.5518 0.20019 13.5314 0.250319C13.511 0.300448 13.5003 0.354327 13.4999 0.408836C13.4995 0.463346 13.5093 0.517404 13.5289 0.567883C13.5485 0.618361 13.5775 0.664257 13.6141 0.702916L18.0599 5.5Z" fill="#16416E"/>
<path d="M10.9885 5.5L6.54266 10.2971C6.50605 10.3357 6.47711 10.3816 6.45752 10.4321C6.43792 10.4826 6.42805 10.5367 6.42848 10.5912C6.42891 10.6457 6.43963 10.6996 6.46003 10.7497C6.48042 10.7998 6.51008 10.8452 6.54729 10.8832C6.5845 10.9212 6.62852 10.9511 6.67681 10.9711C6.72509 10.9912 6.77668 11.001 6.82859 10.9999C6.8805 10.9989 6.9317 10.9871 6.97922 10.9651C7.02674 10.9432 7.06965 10.9115 7.10545 10.8721L11.8172 5.78748C11.8886 5.71052 11.9285 5.60738 11.9285 5.5C11.9285 5.39262 11.8886 5.28948 11.8172 5.21252L7.10545 0.127947C7.06965 0.0884724 7.02674 0.0568457 6.97922 0.0348969C6.9317 0.0129471 6.8805 0.00111103 6.82859 7.34329e-05C6.77668 -0.000964165 6.72509 0.00881672 6.67681 0.0288515C6.62852 0.0488853 6.5845 0.0787745 6.54729 0.116789C6.51008 0.154803 6.48042 0.20019 6.46003 0.250319C6.43963 0.300448 6.42891 0.354327 6.42848 0.408836C6.42805 0.463346 6.43792 0.517404 6.45752 0.567883C6.47711 0.618361 6.50605 0.664257 6.54266 0.702916L10.9885 5.5Z" fill="#16416E" fill-opacity="0.76"/>
<path d="M4.70273 5.50007L0.256889 9.61186C0.220285 9.64499 0.191348 9.68433 0.17175 9.7276C0.152152 9.77087 0.142282 9.8172 0.142714 9.86392C0.143145 9.91065 0.153868 9.95683 0.174262 9.9998C0.194656 10.0428 0.224316 10.0817 0.261526 10.1142C0.298736 10.1468 0.342757 10.1725 0.391041 10.1896C0.439326 10.2068 0.490916 10.2152 0.542824 10.2143C0.594733 10.2134 0.64593 10.2033 0.693453 10.1844C0.740976 10.1656 0.783881 10.1385 0.819686 10.1047L5.53148 5.74648C5.6028 5.68052 5.6427 5.59211 5.6427 5.50007C5.6427 5.40803 5.6028 5.31962 5.53148 5.25365L0.819686 0.895452C0.783881 0.861618 0.740976 0.83451 0.693453 0.815696C0.64593 0.796882 0.594733 0.786737 0.542824 0.785848C0.490916 0.784958 0.439326 0.793342 0.391041 0.810514C0.342757 0.827686 0.298736 0.853305 0.261526 0.885889C0.224316 0.918473 0.194656 0.957376 0.174262 1.00034C0.153868 1.04331 0.143145 1.08949 0.142714 1.13622C0.142282 1.18294 0.152152 1.22927 0.17175 1.27254C0.191348 1.31581 0.220285 1.35515 0.256889 1.38828L4.70273 5.50007Z" fill="#16416E" fill-opacity="0.29"/>
</svg>
