<svg width="22" height="22" viewBox="0 0 22 22" fill="none" xmlns="http://www.w3.org/2000/svg">
<path d="M17.1875 3.4375H17.0706V4.8125H17.1875C17.3698 4.8125 17.5447 4.88493 17.6736 5.01386C17.8026 5.1428 17.875 5.31766 17.875 5.5V19.25C17.875 19.4323 17.8026 19.6072 17.6736 19.7361C17.5447 19.8651 17.3698 19.9375 17.1875 19.9375H4.8125C4.63016 19.9375 4.4553 19.8651 4.32636 19.7361C4.19743 19.6072 4.125 19.4323 4.125 19.25V5.5C4.125 5.31766 4.19743 5.1428 4.32636 5.01386C4.4553 4.88493 4.63016 4.8125 4.8125 4.8125H4.92938V3.4375H4.8125C4.26549 3.4375 3.74089 3.6548 3.35409 4.04159C2.9673 4.42839 2.75 4.95299 2.75 5.5V19.25C2.75 19.797 2.9673 20.3216 3.35409 20.7084C3.74089 21.0952 4.26549 21.3125 4.8125 21.3125H17.1875C17.7345 21.3125 18.2591 21.0952 18.6459 20.7084C19.0327 20.3216 19.25 19.797 19.25 19.25V5.5C19.25 4.95299 19.0327 4.42839 18.6459 4.04159C18.2591 3.6548 17.7345 3.4375 17.1875 3.4375Z" fill="#B2B2B2"/>
<path d="M15.8125 2.0625H13.75V0H8.25V2.0625H6.1875V6.1875H15.8125V2.0625ZM14.4375 4.8125H7.5625V3.4375H9.625V1.375H12.375V3.4375H14.4375V4.8125Z" fill="#B2B2B2"/>
<path d="M6.875 8.9375H15.125V10.3125H6.875V8.9375ZM6.875 12.375H15.125V13.75H6.875V12.375ZM6.875 15.8125H15.125V17.1875H6.875V15.8125Z" fill="#B2B2B2"/>
</svg>
